<svg width="200" height="100" viewBox="0 0 200 100" fill="none" xmlns="http://www.w3.org/2000/svg">
<rect x="148" y="29" width="2" height="24" fill="#FD3D11"/>
<rect x="144" y="29" width="2" height="24" fill="#FD3D11"/>
<rect x="156" y="29" width="2" height="21" fill="#FD3D11"/>
<rect width="2" height="24" transform="matrix(-1 0 0 1 181 29)" fill="#FD3D11"/>
<rect width="2" height="24" transform="matrix(-1 0 0 1 185 29)" fill="#FD3D11"/>
<rect width="2" height="21" transform="matrix(-1 0 0 1 173 29)" fill="#FD3D11"/>
<path d="M144 52C144 54.6264 144.53 57.2272 145.56 59.6537C146.591 62.0802 148.101 64.285 150.004 66.1421C151.908 67.9993 154.168 69.4725 156.655 70.4776C159.142 71.4827 161.808 72 164.5 72C167.192 72 169.858 71.4827 172.345 70.4776C174.832 69.4725 177.092 67.9993 178.996 66.1421C180.899 64.285 182.409 62.0802 183.44 59.6537C184.47 57.2272 185 54.6264 185 52H182.998C182.998 54.37 182.52 56.7168 181.59 58.9063C180.661 61.0959 179.298 63.0854 177.58 64.7613C175.863 66.4371 173.823 67.7664 171.579 68.6734C169.335 69.5803 166.929 70.0471 164.5 70.0471C162.071 70.0471 159.665 69.5803 157.421 68.6734C155.177 67.7664 153.137 66.4371 151.42 64.7613C149.702 63.0854 148.339 61.0959 147.41 58.9063C146.48 56.7168 146.002 54.37 146.002 52L144 52Z" fill="#FD3D11"/>
<path d="M152 29H154V51H152V29Z" fill="#FD3D11"/>
<rect width="2" height="22" transform="matrix(-1 0 0 1 177 29)" fill="#FD3D11"/>
<path d="M152 49.5C152 51.4042 152.323 53.2897 152.952 55.0489C153.58 56.8081 154.5 58.4066 155.661 59.753C156.822 61.0995 158.2 62.1676 159.716 62.8963C161.233 63.6249 162.858 64 164.5 64C166.142 64 167.767 63.6249 169.284 62.8963C170.8 62.1676 172.178 61.0995 173.339 59.753C174.5 58.4066 175.42 56.8081 176.048 55.0489C176.677 53.2897 177 51.4042 177 49.5H175.065C175.065 51.1095 174.792 52.7032 174.261 54.1901C173.73 55.6771 172.952 57.0282 171.971 58.1663C170.99 59.3043 169.825 60.2071 168.543 60.823C167.261 61.4389 165.887 61.756 164.5 61.756C163.113 61.756 161.739 61.4389 160.457 60.823C159.175 60.2071 158.01 59.3043 157.029 58.1663C156.048 57.0282 155.27 55.6771 154.739 54.1901C154.208 52.7032 153.935 51.1095 153.935 49.5L152 49.5Z" fill="#FD3D11"/>
<path d="M148 51.5C148 53.6668 148.427 55.8124 149.256 57.8143C150.085 59.8161 151.301 61.6351 152.833 63.1673C154.365 64.6994 156.184 65.9148 158.186 66.744C160.188 67.5732 162.333 68 164.5 68C166.667 68 168.812 67.5732 170.814 66.744C172.816 65.9148 174.635 64.6994 176.167 63.1673C177.699 61.6351 178.915 59.8161 179.744 57.8143C180.573 55.8124 181 53.6668 181 51.5H179.056C179.056 53.4115 178.68 55.3043 177.948 57.0703C177.216 58.8364 176.144 60.441 174.793 61.7927C173.441 63.1443 171.836 64.2165 170.07 64.948C168.304 65.6795 166.412 66.056 164.5 66.056C162.588 66.056 160.696 65.6795 158.93 64.948C157.164 64.2165 155.559 63.1443 154.207 61.7927C152.856 60.441 151.784 58.8364 151.052 57.0703C150.32 55.3043 149.944 53.4115 149.944 51.5L148 51.5Z" fill="#FD3D11"/>
<path d="M156 50C156 51.1819 156.22 52.3522 156.647 53.4442C157.074 54.5361 157.7 55.5282 158.49 56.364C159.279 57.1997 160.216 57.8626 161.247 58.3149C162.278 58.7672 163.384 59 164.5 59C165.616 59 166.722 58.7672 167.753 58.3149C168.784 57.8626 169.721 57.1997 170.51 56.364C171.3 55.5282 171.926 54.5361 172.353 53.4442C172.78 52.3522 173 51.1819 173 50H170.989C170.989 50.9023 170.821 51.7957 170.495 52.6293C170.169 53.4629 169.691 54.2203 169.088 54.8583C168.486 55.4963 167.77 56.0024 166.983 56.3476C166.196 56.6929 165.352 56.8706 164.5 56.8706C163.648 56.8706 162.804 56.6929 162.017 56.3476C161.23 56.0024 160.514 55.4963 159.912 54.8583C159.309 54.2203 158.831 53.4629 158.505 52.6293C158.179 51.7957 158.011 50.9023 158.011 50L156 50Z" fill="#FD3D11"/>
<path d="M108 29.1838L110.127 29.1607C110.127 29.1607 136.13 70.1662 135.627 70.1607C135.123 70.1551 133.11 70.1329 133.11 70.1329L108 29.1838Z" fill="#FD3D11"/>
<path d="M112 29.1838L114.127 29.1607C114.127 29.1607 139.503 69.0056 139 69.0001C138.496 68.9945 137 70.0001 137 70.0001L112 29.1838Z" fill="#FD3D11"/>
<path d="M104 29.0001L106 29.0001C106 29.0001 132.13 70.1662 131.627 70.1607C131.124 70.1551 129.11 70.1329 129.11 70.1329L104 29.0001Z" fill="#FD3D11"/>
<rect x="131" y="29.0001" width="2" height="31" fill="#FD3D11"/>
<rect x="128" y="29.0001" width="2" height="26" fill="#FD3D11"/>
<rect x="134" y="29.0001" width="2" height="36" fill="#FD3D11"/>
<rect x="137" y="29.0001" width="2" height="41" fill="#FD3D11"/>
<path d="M127 70.0559L124.873 70.0727C124.873 70.0727 99.6149 30.1529 100.118 30.1599C100.622 30.1669 102.121 29.1658 102.121 29.1658L127 70.0559Z" fill="#FD3D11"/>
<rect x="108" y="70.1834" width="2" height="31" transform="rotate(-179.831 108 70.1834)" fill="#FD3D11"/>
<rect x="111" y="70.1922" width="2" height="26" transform="rotate(-179.831 111 70.1922)" fill="#FD3D11"/>
<rect x="105" y="70.1745" width="2" height="36" transform="rotate(-179.831 105 70.1745)" fill="#FD3D11"/>
<rect x="102" y="70.1656" width="2" height="41" transform="rotate(-179.831 102 70.1656)" fill="#FD3D11"/>
<rect x="67" y="29" width="2" height="41" fill="#FD3D11"/>
<rect x="70" y="29" width="2" height="41" fill="#FD3D11"/>
<rect x="73" y="29" width="2" height="41" fill="#FD3D11"/>
<rect x="76" y="29" width="2" height="41" fill="#FD3D11"/>
<rect x="76" y="31" width="2" height="21" transform="rotate(-90 76 31)" fill="#FD3D11"/>
<path d="M76 39V37H97V39H76Z" fill="#FD3D11"/>
<path d="M76 35V33H97V35H76Z" fill="#FD3D11"/>
<rect x="76" y="62" width="2" height="21" transform="rotate(-90 76 62)" fill="#FD3D11"/>
<rect x="76" y="66" width="2" height="21" transform="rotate(-90 76 66)" fill="#FD3D11"/>
<rect x="76" y="70" width="2" height="21" transform="rotate(-90 76 70)" fill="#FD3D11"/>
<rect x="76" y="47" width="2" height="12" transform="rotate(-90 76 47)" fill="#FD3D11"/>
<path d="M76 51V49H88V51H76Z" fill="#FD3D11"/>
<path d="M76 55V53H88V55H76Z" fill="#FD3D11"/>
<rect x="18" y="29" width="2" height="41" fill="#FD3D11"/>
<rect x="22" y="34" width="2" height="36" fill="#FD3D11"/>
<rect x="26" y="41" width="2" height="29" fill="#FD3D11"/>
<rect x="30" y="49" width="2" height="21" fill="#FD3D11"/>
<rect width="2" height="35" transform="matrix(-1 0 0 1 58 35)" fill="#FD3D11"/>
<rect width="2" height="28" transform="matrix(-1 0 0 1 54 42)" fill="#FD3D11"/>
<rect width="2" height="20" transform="matrix(-1 0 0 1 50 50)" fill="#FD3D11"/>
<path d="M61.5 29L59 29L43.5 59L43.8813 59.4441L44.322 59.6803L45 60L61.5 29Z" fill="#FD3D11"/>
<path d="M57.5531 29.0411L55.1211 28.9142L41.565 55.2885L41.9584 55.7099L42.3991 55.9461L43.0749 56.27L57.5531 29.0411Z" fill="#FD3D11"/>
<path d="M53.5531 29.0411L51.1883 28.789L39.5511 51.5838L39.9566 51.9828L40.3973 52.2191L41.0709 52.547L53.5531 29.0411Z" fill="#FD3D11"/>
<path d="M28.8697 28.984L26.4472 28.9141L43.1153 60L44 60C44 60 44.5255 59.9863 45 60C45.4745 60.0137 28.8697 28.984 28.8697 28.984Z" fill="#FD3D11"/>
<path d="M25.4225 29.0632L23 28.9933L39.6681 60.0792L40.5528 60.0792C40.5528 60.0792 41.0784 60.0655 41.5528 60.0792C42.0273 60.0929 25.4225 29.0632 25.4225 29.0632Z" fill="#FD3D11"/>
<path d="M21.5 29L19 28.9933L35.5 60L36.5 60C36.5 60 37.0255 59.9863 37.5 60C37.9745 60.0137 21.5 29 21.5 29Z" fill="#FD3D11"/>
<rect x="60" y="29" width="2" height="41" fill="#FD3D11"/>
</svg>
