<svg width="150" height="150" viewBox="0 0 150 150" fill="none" xmlns="http://www.w3.org/2000/svg">
<rect width="150" height="150" rx="15" fill="#3B5998"/>
<path d="M85.5 45C83.2019 45 80.9262 45.4527 78.803 46.3321C76.6798 47.2116 74.7507 48.5006 73.1256 50.1256C71.5006 51.7507 70.2116 53.6798 69.3321 55.803C68.4527 57.9262 68 60.2019 68 62.5L81.0503 62.5C81.0503 61.9157 81.1654 61.337 81.389 60.7972C81.6127 60.2573 81.9404 59.7668 82.3536 59.3536C82.7668 58.9404 83.2573 58.6127 83.7972 58.389C84.337 58.1654 84.9157 58.0503 85.5 58.0503V45Z" fill="white"/>
<rect x="68" y="62" width="13" height="44" fill="white"/>
<rect x="84" y="58" width="13" height="9" transform="rotate(-90 84 58)" fill="white"/>
<rect x="56" y="77.3673" width="12.449" height="37.3469" transform="rotate(-90 56 77.3673)" fill="white"/>
</svg>
