<svg width="150" height="150" viewBox="0 0 150 150" fill="none" xmlns="http://www.w3.org/2000/svg">
<rect width="150" height="150" rx="15" fill="#3B5998"/>
<path d="M89.5 45C87.2019 45 84.9262 45.4527 82.803 46.3321C80.6798 47.2116 78.7507 48.5006 77.1256 50.1256C75.5006 51.7507 74.2116 53.6798 73.3321 55.803C72.4527 57.9262 72 60.2019 72 62.5L85.0503 62.5C85.0503 61.9157 85.1654 61.337 85.389 60.7972C85.6127 60.2573 85.9404 59.7668 86.3536 59.3536C86.7668 58.9404 87.2573 58.6127 87.7972 58.389C88.337 58.1654 88.9157 58.0503 89.5 58.0503L89.5 45Z" fill="white"/>
<rect x="72" y="62" width="13" height="44" fill="white"/>
<rect x="88" y="58" width="13" height="9" transform="rotate(-90 88 58)" fill="white"/>
<rect x="60" y="77.3673" width="12.449" height="37.3469" transform="rotate(-90 60 77.3673)" fill="white"/>
</svg>
