<svg width="150" height="150" viewBox="0 0 150 150" fill="none" xmlns="http://www.w3.org/2000/svg">
<rect width="150" height="150" rx="15" fill="#DD4B39"/>
<path d="M105 75C105 81.9407 102.593 88.6666 98.1903 94.0318C93.7872 99.397 87.66 103.07 80.8527 104.424C74.0454 105.778 66.9792 104.729 60.8581 101.458C54.737 98.1858 49.9397 92.8928 47.2836 86.4805C44.6275 80.0682 44.277 72.9333 46.2918 66.2915C48.3066 59.6497 52.5619 53.9119 58.3329 50.0559C64.1038 46.1999 71.0333 44.4642 77.9405 45.1445C84.8477 45.8248 91.3054 48.879 96.2132 53.7868L87.81 62.19C84.8464 59.2263 80.9468 57.3819 76.7757 56.9711C72.6046 56.5603 68.4201 57.6085 64.9352 59.937C61.4503 62.2655 58.8806 65.7304 57.6639 69.7412C56.4473 73.752 56.659 78.0605 58.2629 81.9327C59.8668 85.805 62.7638 89.0013 66.4601 90.977C70.1565 92.9527 74.4236 93.5857 78.5343 92.768C82.645 91.9504 86.345 89.7326 89.004 86.4927C91.6629 83.2529 93.1161 79.1913 93.1161 75H105Z" fill="white"/>
<path d="M73 69H105V75L104.111 81H73V69Z" fill="white"/>
</svg>
